<svg xmlns="http://www.w3.org/2000/svg" xmlns:xlink="http://www.w3.org/1999/xlink" id="Calque_1" x="0px" y="0px" viewBox="0 0 216 216" xml:space="preserve">
<g>
	<path fill="#007AFF" d="M64.08,98.6c-1.59,0-2.71-0.02-3.83,0c-1.48,0.03-2.93-0.15-4.39-0.34c-1.18-0.15-2.37-0.13-3.54-0.42   c-1.12-0.28-1.38-0.45-1.48-1.59c-0.26-3.1-0.8-6.19-0.67-9.31c0.12-2.94,0.44-5.86,0.87-8.77c0.14-0.93,0.24-1.87,0.36-2.81   c0.14-1.17,0.38-1.31,1.5-0.89c1.08,0.4,2.16,0.83,3.25,1.2c3.77,1.27,7.68,1.83,11.61,2.33c3.59,0.46,7.19,0.43,10.8,0.41   c2.03-0.01,4.05-0.25,6.07-0.47c3.06-0.32,6.12-0.69,9.16-1.16c4.26-0.66,8.44-1.68,12.6-2.82c4.83-1.32,9.62-2.78,14.28-4.63   c3.12-1.24,6.24-2.52,9.26-3.97c3.47-1.67,6.85-3.51,10.09-5.61c2.55-1.66,5.12-3.3,7.5-5.22c2.32-1.87,4.42-3.97,6.42-6.19   c1.53-1.71,2.88-3.53,3.9-5.57c0.74-1.47,1.32-3.01,1.76-4.6c0.14-0.51,0.28-1.01,0.48-1.5c0.28-0.72,0.54-0.8,1.17-0.33   c0.9,0.67,1.8,1.34,2.62,2.1c2.46,2.29,4.65,4.85,6.8,7.42c0.9,1.07,1.12,2.33,0.83,3.66c-0.89,4.09-2.77,7.68-5.6,10.76   c-0.57,0.62-1.14,1.24-1.65,1.9c-0.99,1.29-2.31,2.23-3.48,3.34c-1.75,1.67-3.74,3.06-5.64,4.54c-1.7,1.32-3.5,2.56-5.36,3.67   c-1.95,1.17-3.88,2.39-5.91,3.4c-3.5,1.75-6.87,3.75-10.52,5.21c-1.84,0.73-3.54,1.83-5.44,2.48c-1.52,0.52-2.98,1.21-4.48,1.79   c-1.03,0.4-2.08,0.8-3.17,1.09c-0.74,0.19-1.43,0.58-2.17,0.79c-2.36,0.67-4.59,1.69-6.94,2.37c-1.27,0.37-2.59,0.57-3.86,0.97   c-1.73,0.54-3.49,1.01-5.23,1.53c-0.48,0.15-0.96,0.16-1.44,0.25c-1.96,0.37-3.88,0.9-5.84,1.29c-1.99,0.4-4,0.68-5.97,1.15   c-2.87,0.69-5.8,0.92-8.71,1.32c-2.91,0.4-5.84,0.54-8.76,0.85C68.76,98.54,66.19,98.57,64.08,98.6z"></path>
	<path fill="#007AFF" d="M70.98,123.61c-2.72,0.04-5.72-0.26-8.72-0.42c-1.32-0.07-2.13-0.67-2.79-1.84   c-2.83-4.95-5.04-10.15-6.58-15.64c-0.13-0.47-0.23-0.95-0.31-1.43c-0.08-0.47,0.18-0.66,0.61-0.59c0.45,0.07,0.9,0.17,1.34,0.28   c3.03,0.77,6.1,1.23,9.2,1.56c4.26,0.46,8.53,0.52,12.79,0.37c3.67-0.13,7.33-0.42,10.99-0.82c4.25-0.47,8.46-1.15,12.66-1.93   c5.37-1,10.67-2.29,15.94-3.76c6.18-1.72,12.27-3.67,18.22-6.07c3.47-1.4,6.94-2.82,10.33-4.41c3.9-1.83,7.7-3.86,11.42-6.02   c4.12-2.4,8.08-5.04,11.77-8.06c3.42-2.8,6.6-5.84,9.16-9.48c0.5-0.71,0.92-1.49,1.37-2.24c0.13-0.21,0.24-0.43,0.37-0.63   c0.61-0.93,0.95-0.92,1.42,0.05c0.62,1.26,1.06,2.6,1.42,3.95c0.62,2.33,1.4,4.62,1.92,6.98c0.15,0.68,0.27,1.37,0.39,2.06   c0.12,0.69,0.02,1.32-0.21,1.96c-0.34,0.97-0.87,1.83-1.38,2.71c-1.45,2.5-3.25,4.7-5.34,6.71c-4.26,4.1-9.04,7.51-14.05,10.6   c-3.07,1.89-6.26,3.56-9.46,5.24c-4.07,2.13-8.26,3.99-12.5,5.72c-6.81,2.78-13.75,5.21-20.82,7.25   c-5.78,1.67-11.61,3.18-17.52,4.36c-4.98,0.99-9.98,1.85-15.02,2.46c-2.5,0.3-5.02,0.46-7.53,0.67   C77.15,123.44,74.21,123.62,70.98,123.61z"></path>
	<path fill="#007AFF" d="M133.22,189.88c0.49,0.18,0.96,0.04,1.38,0.32c0.66,0.46,0.97,1.06,1.06,1.84c0.1,0.85,0.48,1.04,1.29,0.76   c0.52-0.18,0.86-0.59,1.21-0.98c1.27-1.42,2.87-2.35,4.59-3.05c1.51-0.62,3.12-0.77,4.74-0.49c0.28,0.05,0.58,0.06,0.75,0.32   c0.22,0.32,0.41,0.68,0.26,1.08c-0.15,0.42-0.51,0.54-0.93,0.54c-0.81-0.01-1.6,0.03-2.4,0.19c-0.9,0.18-1.74,0.54-2.58,0.88   c-0.13,0.05-0.28,0.1-0.36,0.2c-0.93,1.12-2.1,2.07-2.58,3.52c-0.12,0.37-0.24,0.76,0.09,1.08c0.23,0.22,1.07,0.18,1.38-0.09   c0.43-0.36,0.84-0.75,1.09-1.26c0.42-0.88,0.88-1.75,1.22-2.67c0.25-0.67,0.68-1.03,1.3-1.25c0.6-0.21,1.24-0.23,1.86-0.29   c0.67-0.06,0.96,0.33,0.61,0.91c-0.69,1.13-0.89,2.43-1.34,3.63c-0.12,0.34-0.41,0.82-0.06,1.07c0.36,0.26,0.67-0.24,1-0.39   c1.1-0.48,1.58-1.36,1.77-2.53c0.28-1.67,1.16-3.15,1.7-4.73c0.35-1.03,0.72-2.04,1.09-3.06c0.1-0.29,0.08-0.55-0.09-0.8   c-0.92-1.28-1.57-2.72-2.35-4.08c-1.17-2.03-2.53-3.94-3.86-5.98c-0.24,0.31-0.15,0.62-0.15,0.9c-0.01,3.61-0.01,7.21-0.03,10.82   c-0.01,1.63-0.17,1.82-1.8,1.83c-2.66,0.02-5.32,0.01-7.98-0.01c-1-0.01-1.17-0.18-1.19-1.16c-0.02-1.3-0.03-2.59-0.01-3.89   c0.01-0.95,0.14-1.06,1.12-1.1c0.14-0.01,0.28,0.01,0.42,0c0.67-0.05,0.76-0.14,0.81-0.83c0.02-0.24,0.01-0.49,0.01-0.74   c0-4.41,0.01-8.82,0.01-13.24c0-0.32-0.01-0.63-0.01-0.95c0-0.51-0.26-0.73-0.77-0.8c-1.6-0.2-1.6-0.21-1.59-1.83   c0-1.12-0.01-2.24,0.01-3.36c0.02-0.89,0.16-1.07,1.05-1.07c3.01-0.03,6.02-0.02,9.03-0.02c0.51,0,0.86,0.22,1.11,0.66   c1.4,2.42,3.04,4.7,4.4,7.16c1.13,2.05,2.47,3.97,3.77,6.03c0.3-0.41,0.2-0.8,0.2-1.15c0.01-3.64,0.01-7.28,0.02-10.93   c0-1.66,0.06-1.73,1.7-1.75c2.63-0.03,5.25-0.02,7.88-0.01c0.96,0,1.1,0.15,1.12,1.1c0.02,1.33,0.03,2.66-0.01,3.99   c-0.02,1.04-0.18,1.16-1.27,1.2c-1.15,0.04-1.22,0.08-1.22,1.18c-0.01,4.52,0,9.03-0.01,13.55c0,0.58,0.18,1,0.66,1.33   c0.43,0.3,0.8,0.67,1.2,1.02c0.7,0.61,0.84,0.58,1.16-0.25c0.13-0.33,0.27-0.65,0.38-0.98c0.27-0.8,0.83-1.19,1.66-1.21   c1.31-0.03,1.45,0.07,1.44-1.64c-0.01-3.85-0.01-7.7-0.01-11.56c0-0.25-0.01-0.49-0.01-0.74c-0.01-0.48-0.27-0.69-0.73-0.7   c-0.03,0-0.07-0.01-0.1,0c-1.98,0.08-1.65-0.54-1.66-1.86c-0.01-1.09-0.01-2.17,0.01-3.26c0.02-1.03,0.15-1.16,1.16-1.18   c1.33-0.02,2.66-0.01,3.99-0.01c4.24,0,8.47,0.01,12.71-0.01c1.31-0.01,2.57,0.28,3.85,0.48c1.08,0.17,2.54,1.87,2.67,2.99   c0.4,3.38,0.45,6.77,0.02,10.15c-0.22,1.71-1.74,3.12-3.44,3.48c-2.57,0.55-5.16,0.3-7.75,0.35c-1.96,0.04-1.83-0.06-1.82,1.84   c0,0.88-0.01,1.75,0.02,2.63c0.02,0.78,0.16,0.89,0.94,0.93c0.03,0,0.07,0,0.11,0c1.69-0.07,1.67,0.05,1.69,1.68   c0.01,0.91,0.1,1.82,0.12,2.73c0.02,0.6-0.01,1.17-0.44,1.67c-0.4,0.46-0.03,1.56,0.54,1.78c0.85,0.32,1.39,0.91,1.6,1.8   c0.06,0.27,0.09,0.55,0.26,0.79c0.44,0.61,1.07,0.64,1.42-0.03c0.38-0.74,0.77-1.52,0.81-2.37c0.05-0.94,0.53-1.39,1.39-1.57   c0.55-0.12,1.08-0.32,1.64-0.32c0.92,0,1.34,0.44,1.32,1.36c0,0.14-0.05,0.28-0.05,0.42c0.01,0.34,0.21,0.44,0.49,0.31   c0.41-0.19,0.83-0.39,1.2-0.64c0.69-0.46,1.46-0.67,2.27-0.76c1.14-0.13,1.74,0.44,1.63,1.59c-0.11,1.22-0.82,2.15-1.61,2.99   c-0.73,0.76-1.11,1.66-1.46,2.84c1.07-0.57,2.01-0.97,2.76-1.69c0.3-0.29,0.61-0.71,1.06-0.41c0.46,0.31,0.18,0.76,0.01,1.14   c-1.14,2.47-3.2,3.63-5.79,3.93c-0.91,0.11-1.61-0.57-1.69-1.49c-0.08-0.95,0.25-1.79,0.73-2.58c0.23-0.39,0.51-0.76,0.53-1.24   c0-0.13-0.01-0.3-0.09-0.39c-0.15-0.16-0.32-0.03-0.47,0.05c-0.35,0.18-0.6,0.47-0.84,0.77c-0.76,0.93-1.41,1.91-1.99,2.96   c-0.33,0.59-0.77,1.08-1.27,1.53c-0.5,0.45-1.1,0.52-1.65,0.23c-0.45-0.23-0.6-0.64-0.47-1.37c0.1-0.59,0.27-1.16,0.37-1.75   c0.08-0.51-0.07-0.63-0.59-0.49c-0.93,0.25-1.7,0.67-2.37,1.44c-1.2,1.38-2.85,2.13-4.56,2.69c-0.73,0.24-1.45,0.05-2.06-0.47   c-0.32-0.27-0.65-0.53-0.97-0.8c-0.65-0.56-0.67-0.6-1.38-0.14c-0.6,0.38-1.26,0.62-1.91,0.85c-1.1,0.39-2.15,0.3-2.92-0.72   c-0.22-0.29-0.4-0.27-0.7-0.13c-0.73,0.33-1.48,0.63-2.23,0.91c-1.11,0.42-1.99,0.17-2.64-0.84c-0.32-0.49-0.55-0.5-1-0.22   c-0.62,0.39-1.27,0.72-1.98,0.94c-1.21,0.37-2.27,0.36-3.04-0.83c-0.17-0.26-0.38-0.24-0.64-0.13c-0.73,0.33-1.48,0.63-2.21,0.96   c-0.32,0.14-0.64,0.26-1,0.29c-0.78,0.06-1.47-0.06-1.9-0.81c-0.29-0.5-0.64-0.54-1.13-0.28c-0.71,0.38-1.45,0.68-2.23,0.9   c-0.95,0.26-1.81,0.19-2.55-0.49c-0.37-0.34-0.68-0.26-1.02-0.02c-0.64,0.45-1.36,0.73-2.1,0.95c-0.96,0.29-1.9-0.1-2.43-0.95   c-0.47-0.76-0.81-1.52-0.62-2.47c0.12-0.63-0.07-0.74-0.71-0.58c-0.69,0.17-1.31,0.45-1.79,1.03c-1.1,1.33-2.56,2.12-4.13,2.79   c-1.41,0.6-2.55,0.19-3.55-0.74c-0.48-0.44-0.78-0.46-1.36-0.22c-2.13,0.88-4.28,1.72-6.67,1.54c-2.68-0.2-4.92-1.24-6.6-3.38   c-0.57-0.73-0.7-1.6-0.83-2.46c-0.33-2.18-0.19-4.32,0.67-6.39c0.28-0.66,0.69-1.21,1.12-1.77c0.13-0.17,0.34-0.29,0.42-0.47   c0.67-1.55,2.17-2.2,3.39-3.17c1.15-0.91,2.51-1.36,3.9-1.76c0.37-0.11,0.74-0.2,0.83-0.68c0.15-0.81-0.11-1.15-1-1.15   c-3.05-0.01-6.09-0.01-9.14-0.01c-1.8,0-1.8,0-1.8-1.81c0-1.3,0.01-2.59-0.01-3.89c-0.01-0.59,0.18-1.07,0.54-1.54   c0.93-1.19,2.09-2.17,3.06-3.32c0.98-1.17,1.94-2.38,3.01-3.48c1.41-1.45,2.73-2.99,4.02-4.55c0.51-0.62,1.18-0.95,2.02-0.95   c2.38,0.01,4.76-0.01,7.14,0c0.95,0.01,1.07,0.13,1.08,1.12c0.01,3.68,0,7.35,0,11.03c0,0.32-0.01,0.63,0,0.95   c0.03,0.81,0.12,0.9,0.91,0.94c0.59,0.02,1.19,0.01,1.79,0.02c0.41,0.01,0.64,0.2,0.7,0.62c0.2,1.36,0.15,2.72,0.09,4.09   c-0.03,0.56-0.37,0.79-0.91,0.79c-0.6-0.01-1.19,0-1.79,0c-0.51,0-0.78,0.23-0.78,0.76c0.01,0.6,0.01,1.19,0,1.79   c-0.01,0.54,0.27,0.76,0.78,0.74c0.14-0.01,0.28,0,0.42,0.01c0.73,0.06,0.85,0.15,0.87,0.89c0.03,0.84,0.01,1.68,0.02,2.52   c0,0.46,0.01,0.91,0,1.37c0,0.46,0.15,0.75,0.62,0.96C133.31,188.16,133.58,188.86,133.22,189.88z M118.21,184   c-0.35-0.01-0.46,0.08-0.54,0.19c-1.08,1.59-2.13,3.2-2.67,5.08c-0.7,2.4-0.3,4.56,1.26,6.51c0.68,0.85,1.56,1.36,2.62,1.61   c1.36,0.31,2.63,0.03,3.91-0.39c1.32-0.43,2.2-1.28,2.77-2.53c1.04-2.29,2.1-4.59,4.25-6.12c0.02-0.01,0.01-0.06,0.02-0.23   c-0.51,0-1.03,0.04-1.53-0.01c-1.04-0.11-1.92,0.18-2.71,0.85c-0.29,0.25-0.63,0.45-0.97,0.63c-0.94,0.49-1.54,0.25-1.78-0.78   c-0.12-0.52-0.38-0.7-0.87-0.7c-0.8,0-1.61,0-2.41-0.02c-1.19-0.03-1.32-0.16-1.34-1.34C118.2,185.85,118.21,184.95,118.21,184z    M162.17,184.68c0.02,0.36,0.13,0.67,0.02,0.83c-0.41,0.58-0.45,1.24-0.57,1.89c-0.08,0.43-0.37,0.66-0.81,0.69   c-0.31,0.02-0.63,0.03-0.94,0.03c-1.68,0-3.36,0.01-5.04,0c-0.64-0.01-1.07,0.22-1.26,0.86c-0.53,1.78-1.23,3.5-1.89,5.23   c-0.2,0.53-0.28,1.09-0.24,1.65c0.04,0.5,0.27,0.65,0.69,0.38c0.98-0.62,1.92-1.28,2.36-2.44c0.4-1.05,0.83-2.08,1.23-3.12   c0.38-0.99,1.02-1.64,2.12-1.81c0.42-0.07,0.83-0.17,1.25-0.15c0.4,0.02,0.92-0.2,1.16,0.23c0.25,0.43-0.19,0.78-0.43,1.1   c-1.02,1.41-1.72,2.96-2.25,4.6c-0.11,0.33-0.2,0.68-0.22,1.02c-0.03,0.52,0.29,0.71,0.74,0.43c0.45-0.27,0.84-0.63,1.28-0.9   c0.52-0.31,0.82-0.75,0.97-1.31c0.1-0.37,0.19-0.75,0.23-1.13c0.14-1.1,0.57-2.08,1.09-3.04c0.57-1.05,0.98-2.16,1.26-3.33   C163.13,185.63,162.96,185.09,162.17,184.68z M177.12,168.47c0,0.7-0.02,1.39,0.01,2.09c0.03,0.74,0.15,0.88,0.85,0.9   c0.87,0.03,1.74,0.02,2.61-0.01c0.66-0.03,0.82-0.17,0.84-0.8c0.03-1.46,0.04-2.93,0.02-4.39c-0.01-0.66-0.16-0.8-0.81-0.83   c-0.9-0.03-1.81-0.03-2.72,0c-0.64,0.02-0.77,0.16-0.79,0.84C177.1,167.01,177.12,167.74,177.12,168.47z M120.94,166.14   c-0.68,0.47-0.94,0.97-1.3,1.38c-1.55,1.75-2.87,3.7-4.53,5.37c-0.14,0.14-0.33,0.3-0.2,0.54c0.1,0.18,0.3,0.15,0.47,0.15   c1.61,0,3.22,0,4.83,0c0.46,0,0.73-0.21,0.73-0.69C120.94,170.73,120.94,168.57,120.94,166.14z M170,188.54   c0.23,0.3,0.52,0.14,0.78,0.13c0.97-0.02,1.16,0.24,0.72,1.1c-0.37,0.71-0.8,1.4-1.19,2.1c-0.65,1.17-1.17,2.39-1.3,3.73   c-0.02,0.21-0.07,0.43,0.14,0.57c0.2,0.14,0.4,0.06,0.59-0.06c1.02-0.63,1.95-1.33,2.35-2.56c0.23-0.72,0.48-1.45,0.92-2.1   c0.84-1.25,1.78-2.38,3.2-3.32c-1.94,0-3.68-0.01-5.42,0.01C170.47,188.15,170.14,188.16,170,188.54z M168.83,188.89   c-0.42-0.25-0.81-0.35-1.17-0.54c-1.13-0.58-1.95-0.19-2.29,1.02c-0.36,1.25-0.89,2.43-1.43,3.6c-0.38,0.83-0.74,1.67-0.68,2.61   c0.04,0.66,0.3,0.82,0.88,0.5c0.89-0.49,1.54-1.2,1.91-2.15c0.46-1.17,0.93-2.34,1.39-3.51   C167.7,189.77,167.96,189.1,168.83,188.89z M131.56,190.97c-0.59,0.2-0.82,0.55-1.08,0.87c-0.78,0.98-1.14,2.16-1.4,3.36   c-0.27,1.22,0.28,1.73,1.49,1.44c0.58-0.14,0.98-0.49,1.32-0.96c0.25-0.35,0.31-0.69,0.13-1.08   C131.51,193.49,131.36,192.33,131.56,190.97z M177.72,190.89c-0.78,0.46-1.24,1.16-1.73,1.83c-0.64,0.88-0.9,1.88-0.82,2.97   c0.07,0.91,0.45,1.18,1.31,0.88c0.6-0.21,1.11-0.59,1.6-0.98c0.36-0.29,0.39-0.61,0.1-1C177.36,193.46,176.91,192.27,177.72,190.89   z"></path>
	<path fill="#007AFF" d="M61.86,53.63c1.11-0.08,2.42,0.21,3.76,0.21c4.63-0.01,9.22-0.35,13.81-0.97   c4.17-0.57,8.27-1.47,12.39-2.27c3.03-0.59,6.04-1.22,8.96-2.24c5.35-1.87,10.7-3.76,16.05-5.64c0.13-0.05,0.27-0.08,0.39-0.15   c2.81-1.65,5.85-2.81,8.69-4.42c3.11-1.77,6.04-3.81,9.06-5.71c1.51-0.95,2.86-2.13,4.16-3.36c1.04-0.99,2.05-2,3.14-2.95   c0.66-0.58,1.31-0.73,2.11-0.36c2.26,1.04,4.47,2.18,6.62,3.42c0.9,0.52,1.04,0.92,0.82,1.93c-0.19,0.86-0.51,1.67-0.98,2.42   c-0.35,0.56-0.71,1.13-1.04,1.7c-0.17,0.28-0.45,0.51-0.22,0.94c0.16,0.31-0.18,0.58-0.35,0.82c-1.17,1.62-2.39,3.2-3.75,4.66   c-4.06,4.36-8.8,7.88-13.86,10.98c-2.36,1.44-4.82,2.71-7.13,4.25c-1.17,0.78-2.51,1.23-3.79,1.81c-4.08,1.85-8.22,3.57-12.5,4.92   c-2.54,0.8-4.98,1.87-7.57,2.53c-4.31,1.11-8.65,2.07-13.02,2.86c-3.79,0.68-7.59,1.25-11.44,1.51c-1.65,0.11-3.29,0.13-4.93,0.17   c-1.05,0.02-2.1,0.01-3.15,0.15c-0.87,0.11-1.75-0.08-2.62-0.11c-2.03-0.06-4.06-0.04-6.08-0.25c-1.7-0.18-3.42-0.3-5.1-0.62   c-1.22-0.23-1.44-0.59-1.06-1.75c0.95-2.93,1.93-5.85,3.26-8.64c0.77-1.61,1.62-3.18,2.38-4.8c0.34-0.73,0.8-1.1,1.62-1.03   C60.86,53.66,61.25,53.63,61.86,53.63z"></path>
	<path fill="#007AFF" d="M86.95,143.78c-0.92,0-2.71-0.03-4.49,0.01c-1.17,0.02-2.17-0.32-3.14-0.98   c-4.51-3.07-8.48-6.75-12.12-10.81c-0.44-0.5-0.91-0.97-1.34-1.47c-0.18-0.21-0.38-0.46-0.19-0.75c0.16-0.25,0.44-0.17,0.68-0.14   c1.5,0.16,2.99,0.33,4.49,0.5c2.09,0.24,4.18,0.43,6.28,0.41c2.77-0.02,5.53,0.02,8.3-0.04c2.27-0.05,4.54-0.25,6.8-0.53   c2.01-0.25,4.04-0.41,6.05-0.68c6.81-0.88,13.56-2.11,20.22-3.76c3.5-0.87,7-1.72,10.44-2.8c3.61-1.13,7.25-2.15,10.82-3.37   c4.53-1.56,9.01-3.27,13.41-5.19c3.5-1.53,6.92-3.21,10.36-4.88c2.62-1.27,5.12-2.74,7.62-4.22c3.83-2.27,7.46-4.83,10.99-7.55   c0.42-0.32,0.81-0.67,1.25-0.96c0.48-0.31,0.75-0.17,0.71,0.39c-0.08,0.98-0.19,1.95-0.34,2.92c-0.43,2.71-1.32,5.3-2.01,7.94   c-0.26,0.98-0.97,1.7-1.65,2.4c-3.98,4.13-8.47,7.62-13.32,10.69c-4.42,2.8-9.01,5.25-13.73,7.48c-4.18,1.97-8.5,3.61-12.79,5.33   c-6.59,2.64-13.42,4.44-20.3,6.09c-5.79,1.39-11.66,2.36-17.56,3.16C97.54,143.63,92.69,143.87,86.95,143.78z"></path>
	<path fill="#007AFF" d="M65.91,46.03c-0.25,0-0.51,0-0.65-0.25c-0.16-0.29-0.02-0.56,0.16-0.77c0.59-0.69,1.19-1.38,1.81-2.04   c1.73-1.83,3.4-3.71,5.28-5.4c2.88-2.58,5.94-4.9,9.2-6.96c3.2-2.02,6.52-3.83,10.03-5.27c3.6-1.48,7.29-2.69,11.11-3.47   c2.81-0.57,5.64-1.1,8.49-1.38c4.19-0.4,8.38-0.44,12.58,0.03c1.92,0.22,3.82,0.5,5.72,0.82c0.24,0.04,0.49,0.06,0.72,0.14   c0.42,0.13,0.5,0.37,0.18,0.68c-0.4,0.39-0.83,0.75-1.28,1.09c-2.35,1.83-4.84,3.47-7.37,5.03c-5.62,3.47-11.56,6.31-17.7,8.71   c-5.05,1.98-10.2,3.7-15.47,5.03c-3.53,0.89-7.07,1.75-10.65,2.4c-3.96,0.71-7.95,1.26-11.96,1.59   C66.05,46.01,65.98,46.02,65.91,46.03z"></path>
	<path fill="#007AFF" d="M69.18,172.83c0.02-0.35,0.04-0.69,0.05-1.02c0.01-3.61,0.01-7.21,0.02-10.82c0-0.28-0.01-0.56,0.01-0.84   c0.06-0.7,0.19-0.85,0.9-0.87c1.29-0.03,2.59-0.08,3.88-0.13c1.64-0.07,3.29-0.03,4.94-0.02c1.1,0.01,1.24,0.14,1.25,1.19   c0.02,1.29,0.02,2.59-0.01,3.89c-0.02,1.03-0.17,1.22-1.14,1.2c-1.78-0.03-1.58,0.2-1.59,1.65c-0.01,6.44-0.01,12.88-0.02,19.32   c0,1.69-0.03,1.72-1.69,1.72c-1.79,0-3.57-0.02-5.36,0c-0.77,0.01-1.29-0.23-1.64-0.99c-1.11-2.39-2.76-4.46-4.13-6.69   c-0.37-0.6-0.74-1.18-1.04-1.82c-0.72-1.55-1.73-2.92-2.72-4.42c-0.27,0.4-0.19,0.76-0.19,1.09c-0.02,3.64-0.02,7.28-0.03,10.92   c0,0.32,0.01,0.63-0.01,0.94c-0.05,0.74-0.2,0.93-0.97,0.94c-2.91,0.03-5.81,0.03-8.72,0.01c-0.71,0-0.86-0.17-0.88-0.88   c-0.02-1.43-0.02-2.87,0-4.31c0.01-0.77,0.12-0.85,0.83-0.94c1.5-0.2,1.5-0.2,1.5-1.74c0-4.38,0-8.75,0-13.13   c0-0.28,0.01-0.56-0.01-0.84c-0.05-0.67-0.15-0.77-0.81-0.84c-1.52-0.17-1.52-0.17-1.52-1.68c0-1.12-0.01-2.24,0.01-3.36   c0.02-1,0.11-1.06,1.08-1.13c2.8-0.2,5.6-0.09,8.4-0.14c0.83-0.01,1.39,0.28,1.82,0.98c0.9,1.46,1.84,2.88,2.62,4.42   c0.61,1.21,1.42,2.33,2.16,3.47c0.92,1.41,1.87,2.79,2.56,4.33C68.81,172.5,68.86,172.73,69.18,172.83z"></path>
	<path fill="#007AFF" d="M106.49,173.6c0,2.8-0.02,5.6,0.01,8.4c0.02,2-0.87,3.56-2.28,4.88c-0.54,0.5-1.24,0.64-1.9,0.85   c-0.8,0.26-1.63,0.38-2.48,0.38c-5.39,0-10.78,0-16.17,0c-1.8,0-1.83-0.05-1.83-1.81c0-1.08-0.01-2.17,0.01-3.25   c0.02-0.92,0.12-1.01,1.03-1.07c0.21-0.02,0.42-0.01,0.63-0.04c0.39-0.06,0.64-0.27,0.67-0.68c0.02-0.28,0.03-0.56,0.03-0.84   c0-4.48,0.01-8.96,0.01-13.44c0-0.24-0.01-0.49-0.01-0.73c0-0.51-0.25-0.74-0.76-0.8c-1.61-0.2-1.6-0.21-1.6-1.81   c0-1.12-0.01-2.24,0.01-3.36c0.02-0.84,0.14-0.93,1-0.99c3.08-0.24,6.16-0.1,9.23-0.13c2.34-0.02,4.69,0.02,7.03-0.02   c1.45-0.03,2.85,0.28,4.27,0.49c0.43,0.07,0.76,0.28,1.05,0.63c0.66,0.81,1.41,1.55,1.73,2.6c0.23,0.74,0.37,1.49,0.37,2.27   c-0.01,2.83-0.01,5.67-0.01,8.5C106.5,173.6,106.5,173.6,106.49,173.6z M97.61,173.62C97.61,173.62,97.61,173.62,97.61,173.62   c0-2.27,0-4.55,0-6.82c0-0.28,0-0.56-0.01-0.84c-0.01-0.38-0.2-0.57-0.59-0.56c-0.98,0.02-1.96,0.01-2.94,0.05   c-0.66,0.03-0.78,0.17-0.84,0.82c-0.02,0.21-0.01,0.42-0.01,0.63c0,4.48,0,8.95,0.01,13.43c0,0.24,0,0.49,0.02,0.73   c0.06,0.75,0.19,0.88,0.98,0.91c0.73,0.02,1.47,0.01,2.2,0c1.1-0.01,1.18-0.09,1.19-1.21C97.61,178.37,97.61,175.99,97.61,173.62z"></path>
	<path fill="#007AFF" d="M117.45,155.16c-1.61-0.35-3.27-0.17-4.9-0.52c-1.43-0.31-2.92-0.35-4.37-0.54   c-2.08-0.27-4.15-0.64-6.18-1.18c-0.98-0.26-1.98-0.46-2.95-0.74c-0.37-0.11-1-0.16-0.94-0.65c0.06-0.49,0.67-0.37,1.07-0.38   c3.43-0.04,6.85-0.39,10.26-0.75c5.4-0.56,10.76-1.39,16.06-2.57c6.87-1.54,13.66-3.37,20.32-5.69c4.44-1.55,8.79-3.28,13.1-5.13   c1.83-0.79,3.61-1.69,5.42-2.55c0.19-0.09,0.37-0.2,0.57-0.27c0.28-0.1,0.63-0.42,0.84-0.09c0.21,0.32-0.21,0.55-0.42,0.76   c-2.79,2.81-5.83,5.33-9.07,7.63c-4.42,3.15-9.22,5.59-14.22,7.64c-2.3,0.94-4.7,1.61-7.09,2.29c-3.89,1.11-7.88,1.58-11.87,2.15   C121.21,154.84,119.32,154.79,117.45,155.16z"></path>
</g>
<g>
</g>
<g>
</g>
<g>
</g>
<g>
</g>
<g>
</g>
<g>
</g>
<g>
</g>
<g>
</g>
<g>
</g>
<g>
</g>
<g>
</g>
<g>
</g>
<g>
</g>
<g>
</g>
<g>
</g>
</svg>